<svg xmlns="http://www.w3.org/2000/svg" xmlns:svg="http://www.w3.org/2000/svg" id="svg19713" width="16" height="16" version="1.1" viewBox="0 0 4.233 4.233" xml:space="preserve"><defs id="defs19710"><style id="style36518"/><style id="style36538"/></defs><g id="layer5" transform="translate(-12.7)"><g id="g37122"><path id="path36423" fill="#afb1b3" d="m 13.229167,3.4395833 h 3.174999 v 0.5291666 h -3.174999 z" style="stroke-width:.132292"/><path id="path36425" fill="#afb1b3" d="m 16.13961,1.9235209 c 9.26e-4,-0.03352 -0.0109,-0.066146 -0.03307,-0.091281 L 14.971464,0.57282303 c -0.0069,-0.006456 -0.01445,-0.0122158 -0.02249,-0.0171979 V 0.26458347 H 14.684391 V 0.66145845 L 13.271516,1.9499792 c -0.02572,0.023723 -0.041,0.056668 -0.04249,0.091628 -0.0015,0.034957 0.01093,0.069083 0.03455,0.094903 l 1.13374,1.2594166 c 0.02344,0.026061 0.05627,0.041778 0.09128,0.043656 h 0.0066 c 0.03324,2.381e-4 0.06536,-0.012038 0.08996,-0.034396 L 15.875026,2.2225 v 0.555625 c 0,0.035084 0.01392,0.068739 0.03873,0.093557 0.02482,0.024791 0.05845,0.038735 0.09356,0.038735 0.03508,0 0.06871,-0.013944 0.09353,-0.038735 0.02482,-0.024818 0.03876,-0.058473 0.03876,-0.093557 z M 14.505797,3.1141458 13.549328,2.0558125 14.684391,1.0146772 v 0.5728229 h 0.264583 V 0.94323968 l 0.871813,0.96969782 z" style="stroke-width:.132292"/><rect style="fill:none;fill-opacity:1;stroke-width:.264583;paint-order:stroke fill markers" id="rect37076" width="4.233" height="4.233" x="12.7" y="0"/></g></g></svg>