<svg xmlns="http://www.w3.org/2000/svg" xmlns:svg="http://www.w3.org/2000/svg" id="svg19713" width="16" height="16" version="1.1" viewBox="0 0 4.233 4.233" xml:space="preserve"><defs id="defs19710"><style id="style36518"/><style id="style36538"/></defs><g id="layer1"><g id="g36788" transform="scale(0.50000002)" style="stroke-width:2"><path id="path19836" style="color:#000;display:inline;fill:#afb1b3;fill-opacity:1;stroke-width:2;paint-order:stroke fill markers" d="m 2.1166666,1.0583333 c -0.581365,0 -1.058333,0.477485 -1.058333,1.05885 0,0.581366 0.476968,1.058333 1.058333,1.058333 0.195178,0 0.378816,-0.05382 0.536402,-0.147277 l 2.786393,2.784842 c -0.09379,0.157791 -0.148312,0.341363 -0.148312,0.536919 0,0.581366 0.477485,1.05885 1.058851,1.05885 0.581366,0 1.058333,-0.477484 1.058333,-1.05885 0,-0.581366 -0.476967,-1.058851 -1.058333,-1.058851 -0.195303,0 -0.378749,0.05423 -0.536402,0.147795 l -2.785359,-2.785876 c 0.09346,-0.157586 0.147277,-0.340707 0.147277,-0.535885 0,-0.581365 -0.477483,-1.05885 -1.05885,-1.05885 z m 4.233334,0 c -0.581366,0 -1.058851,0.477485 -1.058851,1.05885 0,0.581366 0.477485,1.058333 1.058851,1.058333 0.581366,0 1.058333,-0.476967 1.058333,-1.058333 0,-0.581365 -0.476967,-1.05885 -1.058333,-1.05885 z m 0,0.529167 c 0.295384,0 0.529166,0.234299 0.529166,0.529683 0,0.295385 -0.233782,0.529167 -0.529166,0.529167 -0.295384,0 -0.529167,-0.233782 -0.529167,-0.529167 0,-0.295384 0.233783,-0.529683 0.529167,-0.529683 z m -2.645834,0.264583 v 0.529167 h 1.058334 v -0.529167 z m 2.38125,1.852083 v 1.058334 h 0.529167 v -1.058334 z"/><rect style="display:inline;fill:none;fill-opacity:1;stroke:none;stroke-width:1.05833;stroke-dashoffset:1.16;stroke-opacity:1;paint-order:stroke fill markers" id="rect36680" width="8.467" height="8.467" x="0" y="0"/></g></g></svg>