<svg xmlns="http://www.w3.org/2000/svg" xmlns:svg="http://www.w3.org/2000/svg" id="svg19713" width="15.99" height="15.99" version="1.1" viewBox="0 0 4.233 4.233" xml:space="preserve"><defs id="defs19710"><style id="style36518"/><style id="style36538"/></defs><g id="layer7" transform="translate(-25.4)"><g id="g37206"><path id="path37199" style="display:inline;fill:#afb1b3;stroke-width:2" d="M 8.83,15 11.41,12.41 10,11 5,16 10,21 11.41,19.59 8.83,17 H 23.17 L 20.59,19.59 22,21 27,16 22,11 20.59,12.41 23.17,15 Z" transform="matrix(0.13229166,0,0,0.13229166,25.4,9e-8)"/><path style="color:#000;fill:#afb1b3;stroke-dashoffset:1.16;-inkscape-stroke:none;paint-order:stroke fill markers" id="path36933" d="m 27.517578,0.26367188 c -1.021309,0 -1.853515,0.83220632 -1.853516,1.85351562 0,1.0213093 0.832207,1.8515625 1.853516,1.8515625 1.021309,0 1.851563,-0.8302532 1.851563,-1.8515625 0,-1.0213093 -0.830254,-1.85351562 -1.851563,-1.85351562 z m 0,0.26562499 c 0.878318,0 1.585938,0.70957243 1.585938,1.58789063 0,0.8783182 -0.70762,1.5878906 -1.585938,1.5878906 -0.878318,0 -1.587891,-0.7095724 -1.587891,-1.5878906 0,-0.8783182 0.709573,-1.58789063 1.587891,-1.58789063 z"/><rect style="fill:none;fill-opacity:1;stroke-width:.264583;paint-order:stroke fill markers" id="rect37201" width="4.233" height="4.233" x="25.4" y="0"/></g></g></svg>